<svg width="1716" height="374" viewBox="0 0 1716 374" fill="none" xmlns="http://www.w3.org/2000/svg">
<path d="M214.027 319.773C214.027 328.862 214.333 336.435 214.943 342.494C215.554 348.351 216.368 353.097 217.386 356.732C218.404 360.974 219.625 364.205 221.05 366.426V370.971H125.18C123.755 368.143 122.636 364.71 121.822 360.671C120.804 357.237 119.99 352.895 119.379 347.644C118.768 342.393 118.463 336.233 118.463 329.165V300.688C118.463 294.427 116.936 289.58 113.883 286.147C110.83 282.512 104.622 280.694 95.259 280.694H91.2899V370.971H0V171.029H91.2899V257.065H95.259C100.551 257.065 104.826 256.459 108.082 255.247C111.339 254.035 113.883 252.42 115.715 250.4C117.547 248.178 118.768 245.755 119.379 243.129C120.193 240.504 120.6 237.777 120.6 234.95V171.029H216.47V215.562C216.47 223.842 214.842 231.113 211.585 237.374C208.328 243.432 203.748 248.481 197.846 252.521C192.146 256.56 185.429 259.589 177.695 261.609C169.96 263.426 161.513 264.335 152.353 264.335V268.879C164.159 268.879 173.929 269.788 181.664 271.606C189.602 273.222 195.912 275.847 200.593 279.482C205.479 282.916 208.939 287.46 210.974 293.115C213.01 298.568 214.027 305.03 214.027 312.503V319.773Z" fill="#EEF5FF"/>
<path d="M340.734 370.971H237.842L285.472 171.029H428.971L474.158 370.971H373.708L368.518 327.953H345.925L340.734 370.971ZM355.084 254.338L348.672 304.626H365.77L359.664 254.338H355.084Z" fill="#EEF5FF"/>
<path d="M743.567 317.653C743.567 326.135 741.531 333.709 737.461 340.374C733.593 347.038 727.08 352.693 717.92 357.338C708.964 361.781 697.057 365.215 682.198 367.638C667.339 369.86 649.02 370.971 627.241 370.971H496.26V171.029H575.948V226.468H580.527C580.527 216.168 582.359 207.281 586.023 199.809C589.891 192.336 595.183 186.277 601.9 181.632C608.82 176.987 616.962 173.554 626.325 171.332C635.688 169.111 645.967 168 657.162 168C667.339 168 676.601 169.01 684.946 171.029C693.291 173.049 700.415 176.078 706.318 180.118C712.425 184.157 717.106 189.206 720.363 195.265C723.619 201.122 725.248 207.887 725.248 215.562C725.248 223.842 723.619 231.113 720.363 237.374C717.106 243.432 712.628 248.481 706.929 252.521C701.23 256.56 694.411 259.589 686.473 261.609C678.738 263.426 670.291 264.335 661.131 264.335V268.879C676.194 268.879 688.915 269.99 699.296 272.212C709.88 274.433 718.429 277.665 724.943 281.906C731.456 286.147 736.138 291.297 738.987 297.356C742.04 303.415 743.567 310.18 743.567 317.653ZM618.081 226.165C612.993 226.165 608.617 227.477 604.953 230.103C601.289 232.526 598.134 235.253 595.488 238.282C592.435 241.918 589.789 245.957 587.55 250.4V257.065H613.196C619.913 257.065 624.29 255.348 626.325 251.915C628.564 248.481 629.684 244.846 629.684 241.009C629.684 236.97 628.768 233.536 626.936 230.709C625.104 227.679 622.152 226.165 618.081 226.165ZM648.003 295.841C648.003 289.58 644.949 285.541 638.843 283.724C632.94 281.704 624.391 280.694 613.196 280.694H587.55V310.988H613.196C624.391 310.988 632.94 310.079 638.843 308.262C644.949 306.242 648.003 302.102 648.003 295.841Z" fill="#EEF5FF"/>
<path d="M979.587 319.773C979.587 328.862 979.892 336.435 980.503 342.494C981.113 348.351 981.928 353.097 982.945 356.732C983.963 360.974 985.184 364.205 986.609 366.426V370.971H890.739C889.314 368.143 888.195 364.71 887.381 360.671C886.363 357.237 885.549 352.895 884.938 347.644C884.328 342.393 884.022 336.233 884.022 329.165V300.688C884.022 294.427 882.496 289.58 879.443 286.147C876.389 282.512 870.181 280.694 860.818 280.694H856.849V370.971H765.559V171.029H856.849V257.065H860.818C866.11 257.065 870.385 256.459 873.642 255.247C876.898 254.035 879.443 252.42 881.274 250.4C883.106 248.178 884.328 245.755 884.938 243.129C885.752 240.504 886.16 237.777 886.16 234.95V171.029H982.029V215.562C982.029 223.842 980.401 231.113 977.144 237.374C973.888 243.432 969.308 248.481 963.405 252.521C957.706 256.56 950.989 259.589 943.254 261.609C935.519 263.426 927.072 264.335 917.913 264.335V268.879C929.718 268.879 939.488 269.788 947.223 271.606C955.161 273.222 961.471 275.847 966.153 279.482C971.038 282.916 974.498 287.46 976.533 293.115C978.569 298.568 979.587 305.03 979.587 312.503V319.773Z" fill="#EEF5FF"/>
<path d="M1106.29 370.971H1003.4L1051.03 171.029H1194.53L1239.72 370.971H1139.27L1134.08 327.953H1111.48L1106.29 370.971ZM1120.64 254.338L1114.23 304.626H1131.33L1125.22 254.338H1120.64Z" fill="#EEF5FF"/>
<path d="M1374.18 256.156C1378.86 255.55 1384.25 255.247 1390.36 255.247C1396.46 255.247 1402.67 255.853 1408.98 257.065C1415.5 258.075 1421.81 259.791 1427.91 262.215C1434.02 264.638 1439.41 267.87 1444.09 271.909C1448.78 275.948 1452.54 280.997 1455.39 287.056C1458.44 293.115 1459.97 300.284 1459.97 308.565C1459.97 328.963 1451.62 345.019 1434.93 356.732C1418.24 368.244 1391.99 374 1356.16 374C1336.62 374 1318.3 372.384 1301.2 369.153C1284.11 365.922 1268.84 360.469 1255.41 352.794L1277.08 285.238C1282.58 289.076 1288.38 292.307 1294.49 294.932C1299.78 297.356 1305.89 299.577 1312.81 301.597C1319.73 303.617 1327.06 304.626 1334.79 304.626C1338.45 304.626 1342.02 304.324 1345.48 303.718C1349.14 302.91 1352.29 301.799 1354.94 300.385C1357.79 298.77 1360.03 296.851 1361.66 294.629C1363.29 292.206 1364.1 289.277 1364.1 285.844C1363.9 280.391 1360.54 275.847 1354.02 272.212C1347.71 268.374 1340.29 266.557 1331.74 266.759H1294.49L1294.18 248.279L1332.96 248.582C1339.27 248.582 1344.46 247.573 1348.53 245.553C1352.6 243.331 1354.64 240.504 1354.64 237.071C1354.64 233.839 1353.21 231.517 1350.36 230.103C1347.71 228.689 1344.25 227.982 1339.98 227.982C1335.91 227.78 1331.23 228.184 1325.94 229.194C1320.85 230.204 1315.86 231.416 1310.98 232.829C1306.09 234.243 1301.61 235.859 1297.54 237.676C1293.67 239.292 1290.72 240.807 1288.69 242.221L1268.23 186.782C1279.83 180.118 1293.37 175.372 1308.84 172.544C1324.31 169.515 1340.59 168 1357.69 168C1386.8 168 1408.57 172.039 1423.03 180.118C1437.48 187.994 1444.91 198.698 1445.31 212.229C1445.72 224.549 1440.12 234.445 1428.52 241.918C1417.12 249.188 1399.11 252.622 1374.48 252.218L1374.18 256.156Z" fill="#EEF5FF"/>
<path d="M1582.58 370.971H1479.68L1527.31 171.029H1670.81L1716 370.971H1615.55L1610.36 327.953H1587.77L1582.58 370.971ZM1596.93 254.338L1590.51 304.626H1607.61L1601.51 254.338H1596.93Z" fill="#EEF5FF"/>
<path d="M89.3422 75.6365H86.6093C80.1627 75.6365 75.8883 76.8867 73.7861 79.3871C71.6839 81.7486 70.6329 85.0824 70.6329 89.3886V108.975C70.6329 113.837 70.4226 118.074 70.0022 121.685C69.5818 125.297 69.0212 128.283 68.3205 130.645C67.7599 133.423 66.9891 135.785 66.0081 137.729H0V134.604C0.981012 133.076 1.82188 130.853 2.5226 127.936C3.22332 125.436 3.7839 122.171 4.20434 118.143C4.62477 113.976 4.83499 108.767 4.83499 102.516V97.5149C4.83499 92.3752 5.53571 87.9301 6.93716 84.1795C8.3386 80.29 10.651 77.1645 13.8743 74.8031C17.2378 72.3027 21.5823 70.4969 26.9078 69.3856C32.3734 68.1354 39.1704 67.5103 47.2988 67.5103V64.3848C40.9923 64.3848 35.1763 63.7597 29.8508 62.5095C24.5253 61.1204 19.8305 59.0368 15.7663 56.2586C11.8422 53.4804 8.75904 50.0076 6.51672 45.8403C4.27441 41.5341 3.15325 36.5333 3.15325 30.838V0.208362H69.1613V44.1734C69.1613 46.1181 69.3716 47.9934 69.792 49.7993C70.3526 51.6051 71.2635 53.272 72.5248 54.8C73.7861 56.1891 75.5379 57.3004 77.7802 58.1339C80.0226 58.9673 82.9656 59.384 86.6093 59.384H89.3422V0.208362H152.197V59.384H154.93C158.574 59.384 161.517 58.9673 163.759 58.1339C166.001 57.3004 167.753 56.1891 169.014 54.8C170.276 53.272 171.117 51.6051 171.537 49.7993C172.098 47.9934 172.378 46.1181 172.378 44.1734V0.208362H238.386V30.838C238.386 36.5333 237.265 41.5341 235.022 45.8403C232.78 50.0076 229.627 53.4804 225.563 56.2586C221.639 59.0368 217.014 61.1204 211.688 62.5095C206.363 63.7597 200.547 64.3848 194.24 64.3848V67.5103C202.369 67.5103 209.096 68.1354 214.421 69.3856C219.887 70.4969 224.231 72.3027 227.455 74.8031C230.818 77.1645 233.201 80.29 234.602 84.1795C236.003 87.9301 236.704 92.3752 236.704 97.5149V102.516C236.704 108.767 236.914 113.976 237.335 118.143C237.755 122.171 238.316 125.436 239.017 127.936C239.717 130.853 240.558 133.076 241.539 134.604V137.729H175.531C174.55 135.785 173.779 133.423 173.219 130.645C172.518 128.283 171.957 125.297 171.537 121.685C171.117 118.074 170.906 113.837 170.906 108.975V89.3886C170.906 85.0824 169.855 81.7486 167.753 79.3871C165.651 76.8867 161.376 75.6365 154.93 75.6365H152.197V137.729H89.3422V75.6365Z" fill="#EEF5FF"/>
<path d="M255.211 0.208362H374.615V41.673H321.009V65.4266H371.461V81.8875H321.009L321.43 96.2647H375.035V137.729H255.632L255.211 0.208362Z" fill="#EEF5FF"/>
<path d="M480.731 0.208362L492.293 86.2631H495.447L507.219 0.208362H574.909L599.714 137.729H524.246L519.201 71.6776H516.048L504.696 137.729H483.254L471.902 71.6776H468.749L463.704 137.729H388.236L413.042 0.208362H480.731Z" fill="#EEF5FF"/>
<path d="M708.567 137.729V65.2183L708.357 65.0099H705.414C705.414 77.9285 701.7 87.8606 694.272 94.8061C686.985 101.752 676.474 105.224 662.74 105.224C630.086 105.224 613.759 85.2213 613.759 45.2152V0.208362H679.557V33.5468C679.557 44.7985 680.328 52.1607 681.869 55.6335C683.411 59.1062 685.794 60.8426 689.017 60.8426C691.399 60.8426 693.361 60.0091 694.903 58.3422C696.585 56.6753 697.846 54.8 698.687 52.7164C699.668 50.216 700.369 47.4378 700.789 44.3818V0.208362H763.434V137.729H708.567Z" fill="#EEF5FF"/>
<path d="M871.91 0H941.282L909.96 137.729H790.977V96.473H851.309V93.3476C839.958 93.3476 830.708 92.4446 823.561 90.6388C816.413 88.6941 810.737 86.1242 806.533 82.9293C802.329 79.7344 799.175 76.0533 797.073 71.8859C795.111 67.7186 793.57 63.2735 792.448 58.5506L778.574 0H849.207L859.087 80.2206H862.24L871.91 0Z" fill="#EEF5FF"/>
<path d="M1043.53 75.6365H1040.8C1034.35 75.6365 1030.08 76.8867 1027.97 79.3871C1025.87 81.7486 1024.82 85.0824 1024.82 89.3886V108.975C1024.82 113.837 1024.61 118.074 1024.19 121.685C1023.77 125.297 1023.21 128.283 1022.51 130.645C1021.95 133.423 1021.18 135.785 1020.2 137.729H954.187V134.604C955.168 133.076 956.009 130.853 956.71 127.936C957.411 125.436 957.971 122.171 958.392 118.143C958.812 113.976 959.022 108.767 959.022 102.516V97.5149C959.022 92.3752 959.723 87.9301 961.124 84.1795C962.526 80.29 964.838 77.1645 968.062 74.8031C971.425 72.3027 975.77 70.4969 981.095 69.3856C986.561 68.1354 993.358 67.5103 1001.49 67.5103V64.3848C995.18 64.3848 989.364 63.7597 984.038 62.5095C978.713 61.1204 974.018 59.0368 969.954 56.2586C966.029 53.4804 962.946 50.0076 960.704 45.8403C958.462 41.5341 957.341 36.5333 957.341 30.838V0.208362H1023.35V44.1734C1023.35 46.1181 1023.56 47.9934 1023.98 49.7993C1024.54 51.6051 1025.45 53.272 1026.71 54.8C1027.97 56.1891 1029.73 57.3004 1031.97 58.1339C1034.21 58.9673 1037.15 59.384 1040.8 59.384H1043.53V0.208362H1106.38V59.384H1109.12C1112.76 59.384 1115.7 58.9673 1117.95 58.1339C1120.19 57.3004 1121.94 56.1891 1123.2 54.8C1124.46 53.272 1125.3 51.6051 1125.72 49.7993C1126.28 47.9934 1126.57 46.1181 1126.57 44.1734V0.208362H1192.57V30.838C1192.57 36.5333 1191.45 41.5341 1189.21 45.8403C1186.97 50.0076 1183.81 53.4804 1179.75 56.2586C1175.83 59.0368 1171.2 61.1204 1165.88 62.5095C1160.55 63.7597 1154.73 64.3848 1148.43 64.3848V67.5103C1156.56 67.5103 1163.28 68.1354 1168.61 69.3856C1174.07 70.4969 1178.42 72.3027 1181.64 74.8031C1185.01 77.1645 1187.39 80.29 1188.79 84.1795C1190.19 87.9301 1190.89 92.3752 1190.89 97.5149V102.516C1190.89 108.767 1191.1 113.976 1191.52 118.143C1191.94 122.171 1192.5 125.436 1193.2 127.936C1193.9 130.853 1194.75 133.076 1195.73 134.604V137.729H1129.72C1128.74 135.785 1127.97 133.423 1127.41 130.645C1126.71 128.283 1126.14 125.297 1125.72 121.685C1125.3 118.074 1125.09 113.837 1125.09 108.975V89.3886C1125.09 85.0824 1124.04 81.7486 1121.94 79.3871C1119.84 76.8867 1115.56 75.6365 1109.12 75.6365H1106.38V137.729H1043.53V75.6365Z" fill="#EEF5FF"/>
<path d="M1305.68 57.9255H1302.52L1280.66 137.729H1211.5V0.208362H1274.36V80.0122H1277.51L1299.16 0.208362H1368.53V137.729H1305.68V57.9255Z" fill="#EEF5FF"/>
<path d="M1450.33 137.729H1387.48V0.208362H1450.33V60.6342H1475.77V0.208362H1538.62V137.729H1475.77V77.0951H1450.33V137.729Z" fill="#EEF5FF"/>
<path d="M1624.14 137.729H1553.29L1586.09 0.208362H1684.89L1716 137.729H1646.84L1643.27 108.141H1627.71L1624.14 137.729ZM1634.02 57.5088L1629.6 92.0974H1641.37L1637.17 57.5088H1634.02Z" fill="#EEF5FF"/>
</svg>
