<svg width="327" height="62" viewBox="0 0 327 62" fill="none" xmlns="http://www.w3.org/2000/svg">
<path d="M17.025 14.6089H16.5042C15.2758 14.6089 14.4612 14.8504 14.0606 15.3333C13.6601 15.7894 13.4598 16.4334 13.4598 17.2651V21.0481C13.4598 21.9872 13.4197 22.8055 13.3396 23.5031C13.2595 24.2006 13.1526 24.7775 13.0191 25.2336C12.9123 25.7702 12.7654 26.2263 12.5785 26.6019H0V25.9982C0.186941 25.7031 0.347176 25.2738 0.480706 24.7104C0.614235 24.2275 0.721058 23.597 0.801176 22.8189C0.881294 22.014 0.921353 21.0079 0.921353 19.8005V18.8346C0.921353 17.8419 1.05488 16.9834 1.32194 16.259C1.589 15.5077 2.02965 14.9041 2.64388 14.4479C3.28482 13.965 4.1127 13.6162 5.12753 13.4016C6.16906 13.1601 7.46429 13.0394 9.01323 13.0394V12.4357C7.81147 12.4357 6.70317 12.315 5.68835 12.0735C4.67353 11.8052 3.77888 11.4027 3.00441 10.8661C2.25665 10.3295 1.66912 9.65879 1.24182 8.85389C0.814529 8.02216 0.600882 7.05628 0.600882 5.95626V0.0402444H13.1793V8.53193C13.1793 8.90755 13.2194 9.26976 13.2995 9.61855C13.4063 9.96734 13.5799 10.2893 13.8203 10.5844C14.0606 10.8527 14.3945 11.0674 14.8218 11.2283C15.2491 11.3893 15.8099 11.4698 16.5042 11.4698H17.025V0.0402444H29.0026V11.4698H29.5233C30.2177 11.4698 30.7785 11.3893 31.2058 11.2283C31.6331 11.0674 31.9669 10.8527 32.2073 10.5844C32.4476 10.2893 32.6079 9.96734 32.688 9.61855C32.7948 9.26976 32.8482 8.90755 32.8482 8.53193V0.0402444H45.4267V5.95626C45.4267 7.05628 45.213 8.02216 44.7857 8.85389C44.3584 9.65879 43.7576 10.3295 42.9831 10.8661C42.2353 11.4027 41.354 11.8052 40.3392 12.0735C39.3244 12.315 38.2161 12.4357 37.0143 12.4357V13.0394C38.5633 13.0394 39.8452 13.1601 40.86 13.4016C41.9015 13.6162 42.7294 13.965 43.3436 14.4479C43.9846 14.9041 44.4386 15.5077 44.7056 16.259C44.9727 16.9834 45.1062 17.8419 45.1062 18.8346V19.8005C45.1062 21.0079 45.1463 22.014 45.2264 22.8189C45.3065 23.597 45.4133 24.2275 45.5469 24.7104C45.6804 25.2738 45.8406 25.7031 46.0276 25.9982V26.6019H33.4491C33.2622 26.2263 33.1153 25.7702 33.0085 25.2336C32.8749 24.7775 32.7681 24.2006 32.688 23.5031C32.6079 22.8055 32.5678 21.9872 32.5678 21.0481V17.2651C32.5678 16.4334 32.3675 15.7894 31.9669 15.3333C31.5663 14.8504 30.7518 14.6089 29.5233 14.6089H29.0026V26.6019H17.025V14.6089Z" fill="#0E916B"/>
<path d="M48.6329 0.0402444H71.3864V8.04899H61.1714V12.6369H70.7855V15.8163H61.1714L61.2515 18.5932H71.4665V26.6019H48.7131L48.6329 0.0402444Z" fill="#0E916B"/>
<path d="M91.6079 0.0402444L93.8111 16.6614H94.412L96.6553 0.0402444H109.554L114.281 26.6019H99.9001L98.9387 13.8443H98.3378L96.1746 26.6019H92.0886L89.9254 13.8443H89.3246L88.3631 26.6019H73.982L78.709 0.0402444H91.6079Z" fill="#0E916B"/>
<path d="M135.024 26.6019V12.5967L134.984 12.5564H134.423C134.423 15.0516 133.716 16.97 132.3 18.3115C130.911 19.653 128.908 20.3237 126.291 20.3237C120.069 20.3237 116.958 16.4602 116.958 8.73316V0.0402444H129.496V6.47944C129.496 8.65267 129.643 10.0747 129.937 10.7454C130.23 11.4162 130.684 11.7515 131.299 11.7515C131.753 11.7515 132.127 11.5906 132.42 11.2686C132.741 10.9466 132.981 10.5844 133.141 10.182C133.328 9.69904 133.462 9.16244 133.542 8.57218V0.0402444H145.479V26.6019H135.024Z" fill="#0E916B"/>
<path d="M166.151 0H179.37L173.401 26.6019H150.728V18.6334H162.225V18.0297C160.062 18.0297 158.299 17.8554 156.937 17.5066C155.575 17.1309 154.494 16.6346 153.692 16.0175C152.891 15.4004 152.29 14.6894 151.89 13.8845C151.516 13.0796 151.222 12.2211 151.009 11.3088L148.365 0H161.824L163.707 15.4943H164.308L166.151 0Z" fill="#0E916B"/>
<path d="M198.854 14.6089H198.334C197.105 14.6089 196.291 14.8504 195.89 15.3333C195.489 15.7894 195.289 16.4334 195.289 17.2651V21.0481C195.289 21.9872 195.249 22.8055 195.169 23.5031C195.089 24.2006 194.982 24.7775 194.849 25.2336C194.742 25.7702 194.595 26.2263 194.408 26.6019H181.829V25.9982C182.016 25.7031 182.177 25.2738 182.31 24.7104C182.444 24.2275 182.55 23.597 182.631 22.8189C182.711 22.014 182.751 21.0079 182.751 19.8005V18.8346C182.751 17.8419 182.884 16.9834 183.151 16.259C183.418 15.5077 183.859 14.9041 184.473 14.4479C185.114 13.965 185.942 13.6162 186.957 13.4016C187.998 13.1601 189.294 13.0394 190.843 13.0394V12.4357C189.641 12.4357 188.533 12.315 187.518 12.0735C186.503 11.8052 185.608 11.4027 184.834 10.8661C184.086 10.3295 183.499 9.65879 183.071 8.85389C182.644 8.02216 182.43 7.05628 182.43 5.95626V0.0402444H195.009V8.53193C195.009 8.90755 195.049 9.26976 195.129 9.61855C195.236 9.96734 195.409 10.2893 195.65 10.5844C195.89 10.8527 196.224 11.0674 196.651 11.2283C197.078 11.3893 197.639 11.4698 198.334 11.4698H198.854V0.0402444H210.832V11.4698H211.353C212.047 11.4698 212.608 11.3893 213.035 11.2283C213.463 11.0674 213.796 10.8527 214.037 10.5844C214.277 10.2893 214.437 9.96734 214.517 9.61855C214.624 9.26976 214.678 8.90755 214.678 8.53193V0.0402444H227.256V5.95626C227.256 7.05628 227.042 8.02216 226.615 8.85389C226.188 9.65879 225.587 10.3295 224.813 10.8661C224.065 11.4027 223.183 11.8052 222.169 12.0735C221.154 12.315 220.046 12.4357 218.844 12.4357V13.0394C220.393 13.0394 221.675 13.1601 222.689 13.4016C223.731 13.6162 224.559 13.965 225.173 14.4479C225.814 14.9041 226.268 15.5077 226.535 16.259C226.802 16.9834 226.936 17.8419 226.936 18.8346V19.8005C226.936 21.0079 226.976 22.014 227.056 22.8189C227.136 23.597 227.243 24.2275 227.376 24.7104C227.51 25.2738 227.67 25.7031 227.857 25.9982V26.6019H215.279C215.092 26.2263 214.945 25.7702 214.838 25.2336C214.704 24.7775 214.598 24.2006 214.517 23.5031C214.437 22.8055 214.397 21.9872 214.397 21.0481V17.2651C214.397 16.4334 214.197 15.7894 213.796 15.3333C213.396 14.8504 212.581 14.6089 211.353 14.6089H210.832V26.6019H198.854V14.6089Z" fill="#0E916B"/>
<path d="M248.809 11.1881H248.208L244.042 26.6019H230.863V0.0402444H242.841V15.4541H243.441L247.567 0.0402444H260.787V26.6019H248.809V11.1881Z" fill="#0E916B"/>
<path d="M276.374 26.6019H264.397V0.0402444H276.374V11.7113H281.221V0.0402444H293.199V26.6019H281.221V14.8906H276.374V26.6019Z" fill="#0E916B"/>
<path d="M309.494 26.6019H295.994L302.244 0.0402444H321.071L327 26.6019H313.821L313.14 20.8871H310.175L309.494 26.6019ZM311.377 11.1076L310.536 17.7883H312.779L311.978 11.1076H311.377Z" fill="#0E916B"/>
<path d="M79.2086 54.7962C79.2086 56.0035 79.2487 57.0096 79.3288 57.8145C79.4089 58.5926 79.5157 59.2231 79.6493 59.706C79.7828 60.2695 79.943 60.6987 80.13 60.9939V61.5975H67.5515C67.3646 61.2219 67.2177 60.7658 67.1109 60.2292C66.9773 59.7731 66.8705 59.1963 66.7904 58.4987C66.7103 57.8011 66.6702 56.9828 66.6702 56.0437V52.2607C66.6702 51.429 66.4699 50.7851 66.0693 50.329C65.6687 49.846 64.8542 49.6045 63.6257 49.6045H63.105V61.5975H51.1274V35.0359H63.105V46.4654H63.6257C64.3201 46.4654 64.8809 46.3849 65.3082 46.224C65.7355 46.063 66.0693 45.8483 66.3097 45.58C66.55 45.2849 66.7103 44.963 66.7904 44.6142C66.8972 44.2654 66.9506 43.9032 66.9506 43.5276V35.0359H79.5291V40.9519C79.5291 42.0519 79.3154 43.0178 78.8881 43.8495C78.4609 44.6544 77.86 45.3252 77.0855 45.8618C76.3377 46.3984 75.4564 46.8008 74.4416 47.0691C73.4268 47.3106 72.3185 47.4313 71.1167 47.4313V48.035C72.6657 48.035 73.9476 48.1557 74.9624 48.3972C76.0039 48.6118 76.8318 48.9606 77.446 49.4436C78.087 49.8997 78.541 50.5034 78.808 51.2546C79.0751 51.979 79.2086 52.8376 79.2086 53.8303V54.7962Z" fill="#0E916B"/>
<path d="M95.833 61.5975H82.3332L88.5824 35.0359H107.41L113.339 61.5975H100.159L99.4784 55.8828H96.514L95.833 61.5975ZM97.7158 46.1032L96.8745 52.7839H99.1178L98.3167 46.1032H97.7158Z" fill="#0E916B"/>
<path d="M148.686 54.5144C148.686 55.6413 148.419 56.6474 147.885 57.5328C147.378 58.4182 146.523 59.1694 145.321 59.7865C144.146 60.3768 142.584 60.8329 140.634 61.1549C138.685 61.45 136.281 61.5975 133.424 61.5975H116.239V35.0359H126.694V42.4007H127.295C127.295 41.0324 127.535 39.8519 128.016 38.8591C128.523 37.8664 129.218 37.0615 130.099 36.4444C131.007 35.8274 132.075 35.3712 133.304 35.0761C134.532 34.781 135.881 34.6334 137.35 34.6334C138.685 34.6334 139.9 34.7676 140.995 35.0359C142.09 35.3042 143.025 35.7066 143.799 36.2432C144.6 36.7798 145.214 37.4506 145.642 38.2555C146.069 39.0335 146.283 39.9323 146.283 40.9519C146.283 42.0519 146.069 43.0178 145.642 43.8495C145.214 44.6544 144.627 45.3252 143.879 45.8618C143.131 46.3984 142.237 46.8008 141.195 47.0691C140.18 47.3106 139.072 47.4313 137.87 47.4313V48.035C139.847 48.035 141.516 48.1826 142.878 48.4777C144.266 48.7728 145.388 49.2021 146.243 49.7655C147.097 50.329 147.711 51.0131 148.085 51.818C148.486 52.6229 148.686 53.5217 148.686 54.5144ZM132.222 42.3605C131.554 42.3605 130.98 42.5349 130.5 42.8836C130.019 43.2056 129.605 43.5678 129.258 43.9703C128.857 44.4532 128.51 44.9898 128.216 45.58V46.4654H131.581C132.462 46.4654 133.037 46.2374 133.304 45.7813C133.597 45.3252 133.744 44.8422 133.744 44.3325C133.744 43.7959 133.624 43.3397 133.384 42.9641C133.143 42.5617 132.756 42.3605 132.222 42.3605ZM136.148 51.6168C136.148 50.7851 135.747 50.2485 134.946 50.007C134.172 49.7387 133.05 49.6045 131.581 49.6045H128.216V53.629H131.581C133.05 53.629 134.172 53.5083 134.946 53.2668C135.747 52.9985 136.148 52.4485 136.148 51.6168Z" fill="#0E916B"/>
<path d="M179.653 54.7962C179.653 56.0035 179.693 57.0096 179.773 57.8145C179.853 58.5926 179.96 59.2231 180.094 59.706C180.227 60.2695 180.387 60.6987 180.574 60.9939V61.5975H167.996C167.809 61.2219 167.662 60.7658 167.555 60.2292C167.422 59.7731 167.315 59.1963 167.235 58.4987C167.155 57.8011 167.115 56.9828 167.115 56.0437V52.2607C167.115 51.429 166.914 50.7851 166.514 50.329C166.113 49.846 165.299 49.6045 164.07 49.6045H163.549V61.5975H151.572V35.0359H163.549V46.4654H164.07C164.764 46.4654 165.325 46.3849 165.753 46.224C166.18 46.063 166.514 45.8483 166.754 45.58C166.994 45.2849 167.155 44.963 167.235 44.6142C167.342 44.2654 167.395 43.9032 167.395 43.5276V35.0359H179.973V40.9519C179.973 42.0519 179.76 43.0178 179.332 43.8495C178.905 44.6544 178.304 45.3252 177.53 45.8618C176.782 46.3984 175.901 46.8008 174.886 47.0691C173.871 47.3106 172.763 47.4313 171.561 47.4313V48.035C173.11 48.035 174.392 48.1557 175.407 48.3972C176.448 48.6118 177.276 48.9606 177.89 49.4436C178.531 49.8997 178.985 50.5034 179.252 51.2546C179.519 51.979 179.653 52.8376 179.653 53.8303V54.7962Z" fill="#0E916B"/>
<path d="M196.277 61.5975H182.778L189.027 35.0359H207.854L213.783 61.5975H200.604L199.923 55.8828H196.958L196.277 61.5975ZM198.16 46.1032L197.319 52.7839H199.562L198.761 46.1032H198.16Z" fill="#0E916B"/>
<path d="M231.425 46.3447C232.039 46.2642 232.746 46.224 233.548 46.224C234.349 46.224 235.163 46.3045 235.991 46.4654C236.846 46.5996 237.674 46.8276 238.475 47.1496C239.276 47.4716 239.984 47.9008 240.598 48.4374C241.212 48.974 241.706 49.6448 242.08 50.4497C242.481 51.2546 242.681 52.2071 242.681 53.3071C242.681 56.0169 241.586 58.1499 239.396 59.706C237.206 61.2353 233.761 62 229.061 62C226.497 62 224.094 61.7854 221.85 61.3561C219.607 60.9268 217.604 60.2024 215.842 59.1829L218.686 50.2082C219.407 50.718 220.168 51.1473 220.969 51.4961C221.664 51.818 222.465 52.1131 223.373 52.3814C224.281 52.6497 225.242 52.7839 226.257 52.7839C226.738 52.7839 227.205 52.7437 227.659 52.6632C228.14 52.5558 228.554 52.4083 228.901 52.2205C229.275 52.0058 229.568 51.7509 229.782 51.4558C229.996 51.1339 230.103 50.7448 230.103 50.2887C230.076 49.5643 229.635 48.9606 228.781 48.4777C227.953 47.9679 226.978 47.7265 225.856 47.7533H220.969L220.929 45.2983L226.017 45.3386C226.844 45.3386 227.525 45.2044 228.06 44.9361C228.594 44.641 228.861 44.2654 228.861 43.8093C228.861 43.38 228.674 43.0714 228.3 42.8836C227.953 42.6958 227.499 42.6019 226.938 42.6019C226.404 42.5751 225.79 42.6287 225.095 42.7629C224.428 42.8971 223.773 43.058 223.132 43.2458C222.491 43.4337 221.904 43.6483 221.37 43.8898C220.862 44.1044 220.475 44.3056 220.208 44.4934L217.524 37.1286C219.046 36.2432 220.822 35.6127 222.852 35.2371C224.882 34.8346 227.018 34.6334 229.261 34.6334C233.08 34.6334 235.938 35.17 237.834 36.2432C239.73 37.2896 240.705 38.7116 240.758 40.5092C240.812 42.1458 240.077 43.4605 238.555 44.4532C237.059 45.4191 234.696 45.8752 231.465 45.8215L231.425 46.3447Z" fill="#0E916B"/>
<path d="M258.767 61.5975H245.268L251.517 35.0359H270.344L276.273 61.5975H263.094L262.413 55.8828H259.449L258.767 61.5975ZM260.65 46.1032L259.809 52.7839H262.052L261.251 46.1032H260.65Z" fill="#0E916B"/>
</svg>
