<svg width="873" height="873" viewBox="0 0 873 873" fill="none" xmlns="http://www.w3.org/2000/svg">
<g clip-path="url(#clip0_173_18)">
<path d="M654.75 0H218.25C97.7139 0 0 97.7139 0 218.25V654.75C0 775.286 97.7139 873 218.25 873H654.75C775.286 873 873 775.286 873 654.75V218.25C873 97.7139 775.286 0 654.75 0Z" fill="#0E916B"/>
<path d="M809.105 498.705C809.105 510.295 809.492 519.955 810.265 527.682C811.039 535.152 812.07 541.205 813.359 545.841C814.648 551.25 816.195 555.371 818 558.205V564H696.564C694.759 560.394 693.341 556.015 692.309 550.864C691.02 546.485 689.989 540.947 689.215 534.25C688.442 527.553 688.055 519.697 688.055 510.682V474.364C688.055 466.379 686.122 460.197 682.254 455.818C678.387 451.182 670.523 448.864 658.663 448.864H653.635V564H538V309H653.635V418.727H658.663C665.366 418.727 670.781 417.955 674.906 416.409C679.031 414.864 682.254 412.803 684.575 410.227C686.895 407.394 688.442 404.303 689.215 400.955C690.247 397.606 690.762 394.129 690.762 390.523V309H812.199V365.795C812.199 376.356 810.136 385.629 806.011 393.614C801.886 401.341 796.085 407.78 788.608 412.932C781.389 418.083 772.88 421.947 763.083 424.523C753.285 426.841 742.586 428 730.983 428V433.795C745.937 433.795 758.313 434.955 768.11 437.273C778.166 439.333 786.158 442.682 792.088 447.318C798.276 451.697 802.659 457.492 805.238 464.705C807.816 471.659 809.105 479.902 809.105 489.432V498.705Z" fill="white"/>
<path d="M218.23 448.864H213.206C201.356 448.864 193.499 451.182 189.634 455.818C185.77 460.197 183.838 466.379 183.838 474.364V510.682C183.838 519.697 183.452 527.553 182.679 534.25C181.906 540.947 180.876 546.485 179.587 550.864C178.557 556.015 177.14 560.394 175.337 564H54V558.205C55.8033 555.371 57.349 551.25 58.6371 545.841C59.9252 541.205 60.9556 535.152 61.7285 527.682C62.5013 519.955 62.8877 510.295 62.8877 498.705V489.432C62.8877 479.902 64.1758 471.659 66.752 464.705C69.3281 457.492 73.5788 451.697 79.5039 447.318C85.6867 442.682 93.6728 439.333 103.462 437.273C113.509 434.955 126.003 433.795 140.945 433.795V428C129.352 428 118.661 426.841 108.872 424.523C99.0827 421.947 90.4526 418.083 82.9817 412.932C75.7685 407.78 70.101 401.341 65.9791 393.614C61.8573 385.629 59.7963 376.356 59.7963 365.795V309H181.133V390.523C181.133 394.129 181.52 397.606 182.292 400.955C183.323 404.303 184.997 407.394 187.316 410.227C189.634 412.803 192.855 414.864 196.977 416.409C201.098 417.955 206.508 418.727 213.206 418.727H218.23V309H333.77V418.727H338.794C345.492 418.727 350.902 417.955 355.023 416.409C359.145 414.864 362.366 412.803 364.684 410.227C367.003 407.394 368.548 404.303 369.321 400.955C370.352 397.606 370.867 394.129 370.867 390.523V309H492.204V365.795C492.204 376.356 490.143 385.629 486.021 393.614C481.899 401.341 476.103 407.78 468.632 412.932C461.419 418.083 452.917 421.947 443.128 424.523C433.339 426.841 422.648 428 411.055 428V433.795C425.997 433.795 438.362 434.955 448.151 437.273C458.198 439.333 466.184 442.682 472.11 447.318C478.292 451.697 482.672 457.492 485.248 464.705C487.824 471.659 489.112 479.902 489.112 489.432V498.705C489.112 510.295 489.499 519.955 490.272 527.682C491.044 535.152 492.075 541.205 493.363 545.841C494.651 551.25 496.197 555.371 498 558.205V564H376.663C374.86 560.394 373.443 556.015 372.413 550.864C371.124 546.485 370.094 540.947 369.321 534.25C368.548 527.553 368.162 519.697 368.162 510.682V474.364C368.162 466.379 366.23 460.197 362.366 455.818C358.501 451.182 350.644 448.864 338.794 448.864H333.77V564H218.23V448.864Z" fill="white"/>
</g>
<defs>
<clipPath id="clip0_173_18">
<rect width="873" height="873" fill="white"/>
</clipPath>
</defs>
</svg>
